<svg xmlns="http://www.w3.org/2000/svg" width="192.49" height="545.907" viewBox="0 0 192.49 545.907">
  <g id="Raggruppa_3" data-name="Raggruppa 3" transform="translate(-3947.332 3908.117)">
    <path id="Tracciato_51" data-name="Tracciato 51" d="M4158.743-3777.367l-6.559-9.393c-5.546-7.943-53.643-78.639-34.857-114.669,6.821-13.082,20.755-19.714,41.417-19.714s34.6,6.633,41.417,19.714c18.786,36.03-29.311,106.726-34.857,114.669Zm0-127.776c-14.221,0-23.381,3.737-27.227,11.108-9.584,18.371,9.642,60.172,27.227,88.185,17.585-28.012,36.811-69.813,27.227-88.185C4182.124-3901.406,4172.964-3905.144,4158.743-3905.144Z" transform="translate(8202.32 -7685.484) rotate(180)" fill="#d4ccbc"/>
    <path id="Tracciato_7" data-name="Tracciato 7" d="M443.57,211.52c6.176-21.7,1.574-38.9-12.957-48.426l0,0a36.062,36.062,0,0,0-37.25-.875,230.945,230.945,0,0,1-32.93,14.617c-.551.207-1.133.355-1.7.539l0-37.367a8.75,8.75,0,0,0-17.5,0v38.844a40.065,40.065,0,0,1-10.719-2.961c-2.488-1.094-4.875-2.363-7.4-3.707v0a50.213,50.213,0,0,0-26.934-7.824,39.674,39.674,0,0,0-34.6,21.918,87.506,87.506,0,0,0-7.77,39.324,194.681,194.681,0,0,0,3,28.562l.875,4.812a226.476,226.476,0,0,1,3.938,27.2l.063.953c1.18,19.766,3.938,32.6,13.883,35.488l0,0a26.682,26.682,0,0,0,8.809,1.133v210A26.273,26.273,0,0,0,310.62,560h78.75a26.273,26.273,0,0,0,26.25-26.25V332.014a27.116,27.116,0,0,0,3.285-.777,29.473,29.473,0,0,0,18.859-20.77c4.168-14.438,2.664-28.148,1.211-41.426l0,0a129.891,129.891,0,0,1-1.16-25.18,172.961,172.961,0,0,1,5.75-32.34ZM398.121,533.75a8.749,8.749,0,0,1-8.75,8.75h-78.75a8.751,8.751,0,0,1-8.75-8.75v-17.5h96.25Zm0-35h-96.25V472.5h96.25Zm0-43.75h-96.25V309.51c3.574-10.84,1.785-25.7.25-38.324-.086-.7-.168-1.383-.25-2.07V250.077c1.543-11.07,4.84-15.277,6.941-16.844.875-.625,3.43-2.551,9.809-.844a8.628,8.628,0,0,1,6.125,10.281c-3.223,12.6-2.59,22.238,1.941,29.461h0a23.787,23.787,0,0,0,15.984,10.5,25.6,25.6,0,0,0,20.242-4.527,26.477,26.477,0,0,0,10.629-18.594l2.848-28.137a8.152,8.152,0,0,0,.043-.875,16.632,16.632,0,0,1,6.27-10.227c7.516,9.324,1.691,30.445-1.8,43.121-.465,1.7-.91,3.309-1.312,4.813-6.949,26.387-3.176,45.535,11.2,56.906v0a35.815,35.815,0,0,0,7.328,4.41Zm28.625-248.28a190.08,190.08,0,0,0-6.355,35.625,145.23,145.23,0,0,0,1.188,28.594c1.313,12.125,2.582,23.566-.629,34.664a12.248,12.248,0,0,1-7.395,8.961,13.19,13.19,0,0,1-11.9-3.187c-8.422-6.66-10.148-19.688-5.141-38.727.379-1.434.809-2.984,1.254-4.609,4.75-17.238,11.93-43.289-2.082-59.523v0a17.059,17.059,0,0,0-18.477-4.922,32.175,32.175,0,0,0-18.266,26.383l-2.82,27.781a8.806,8.806,0,0,1-9.187,7.9c-9.281-.836-6.773-12.641-5.25-18.656a26.082,26.082,0,0,0-18.558-31.527,27.737,27.737,0,0,0-24.762,3.715c-9.332,6.941-14.168,20.09-14.789,40.2a103.687,103.687,0,0,0,1.164,13.91c.469,3.832,4.434,33.82-1.652,32.918-3.8-.559-3.785-17.414-3.937-20.125l-.062-1.016c-1.281-20.211-7.141-39.719-7.8-60.031v0a70.825,70.825,0,0,1,6.012-31.062,22.4,22.4,0,0,1,19.687-12.109,33.806,33.806,0,0,1,17.938,5.8c2.7,1.434,5.492,2.918,8.594,4.277a57.7,57.7,0,0,0,43.086,1.313,249.481,249.481,0,0,0,35.215-15.676,18.87,18.87,0,0,1,19.215.18c7.813,5.082,9.73,14.84,5.711,28.957Z" transform="translate(3693.578 -3922.214)" fill="#d4ccbc"/>
  </g>
</svg>
